<?xml version="1.0" encoding="UTF-8"?>
<svg version="1.1" xmlns="http://www.w3.org/2000/svg" width="512" height="512">
<path d="M0 0 C1.25998558 -0.01354271 1.25998558 -0.01354271 2.54542542 -0.02735901 C4.31955439 -0.04180737 6.09373599 -0.05073471 7.86791992 -0.05444336 C10.52814714 -0.06623664 13.18597138 -0.11538465 15.84570312 -0.16601562 C34.84624073 -0.34578636 52.58466359 4.68806322 66.77734375 17.9296875 C69.11098658 19.67305246 69.11098658 19.67305246 72.22265625 19.15625 C74.24672275 18.60942558 76.25702412 18.01009603 78.25390625 17.37109375 C92.09468372 13.3645529 106.54199824 15.69809062 119.12890625 22.37109375 C130.98643048 29.95546962 139.37584164 41.05341649 142.71470642 54.84106445 C143.60390985 60.27252669 143.36878583 65.78928832 143.32421875 71.27734375 C143.32048169 72.6111225 143.317638 73.94490403 143.31564331 75.27868652 C143.30806131 78.76391376 143.28846061 82.24897035 143.26623535 85.73413086 C143.24565881 89.30059502 143.23661652 92.86708715 143.2265625 96.43359375 C143.2052087 103.41282985 143.17113964 110.39195357 143.12890625 117.37109375 C143.73734375 117.65726562 144.34578125 117.9434375 144.97265625 118.23828125 C150.62162973 121.20603906 154.23087265 126.38056345 156.12890625 132.37109375 C156.63219144 136.83168227 156.70533955 141.2438743 156.65039062 145.72485352 C156.62897954 147.80148563 156.65023912 149.87464621 156.67578125 151.95117188 C156.69547027 160.74314318 155.85604102 167.66229394 150.3046875 174.67578125 C141.73201819 181.90054658 134.16892472 182.87546008 123.12890625 182.37109375 C122.99355469 183.00273437 122.85820312 183.634375 122.71875 184.28515625 C119.08797202 199.37353899 111.13773206 212.51334972 100.12890625 223.37109375 C101.56556641 223.3851123 101.56556641 223.3851123 103.03125 223.39941406 C106.61748121 223.43957712 110.20287804 223.505405 113.78857422 223.57861328 C115.33436282 223.60667162 116.88029086 223.62796081 118.42626953 223.64208984 C128.38696181 223.73854587 136.04748445 223.86710625 143.87890625 230.80859375 C144.62140625 231.65421875 145.36390625 232.49984375 146.12890625 233.37109375 C146.75796875 234.02335938 147.38703125 234.675625 148.03515625 235.34765625 C151.036445 239.6816068 152.3438641 244.29829523 153.87890625 249.30859375 C154.19472656 250.28505859 154.51054687 251.26152344 154.8359375 252.26757812 C157.70900535 261.44025144 157.70900535 261.44025144 157.12890625 266.37109375 C155.75390625 268.74609375 155.75390625 268.74609375 154.12890625 270.37109375 C153.46890625 270.37109375 152.80890625 270.37109375 152.12890625 270.37109375 C152.48984375 271.49128906 152.85078125 272.61148437 153.22265625 273.765625 C153.69163215 275.23820933 154.16036975 276.71086956 154.62890625 278.18359375 C154.86738281 278.92158203 155.10585938 279.65957031 155.3515625 280.41992188 C156.32830761 283.50364571 157.12890625 286.11605184 157.12890625 289.37109375 C158.22203125 289.45359375 159.31515625 289.53609375 160.44140625 289.62109375 C164.12890625 290.37109375 164.12890625 290.37109375 165.72532654 292.01985168 C167.41920833 294.85740062 168.31919394 297.57482396 169.27368164 300.7409668 C169.46597855 301.37082993 169.65827545 302.00069305 169.85639954 302.64964294 C170.48776359 304.72504474 171.10732302 306.80376393 171.7265625 308.8828125 C172.16526778 310.3354588 172.60460378 311.78791475 173.04454041 313.2401886 C173.9648217 316.28420674 174.8796663 319.32978605 175.7902832 322.37670898 C176.95136052 326.26125595 178.12235205 330.14271902 179.29705143 334.0231657 C180.20496694 337.02424271 181.1092599 340.02640108 182.01232719 343.0289402 C182.44258623 344.45912396 182.87353773 345.88909961 183.30522346 347.31885338 C188.99231226 366.18493073 192.42961964 382.53767158 183.87890625 401.08203125 C178.04047465 411.86322597 168.567711 419.00805505 157.14453125 423.078125 C154.0541877 423.96564102 151.37379452 424.37237421 148.140625 424.35546875 C144.91649926 424.3712154 142.22705983 424.45960799 139.12890625 425.37109375 C137.28538179 427.71298726 136.39843713 429.80479867 135.484375 432.6328125 C131.61979304 440.43993629 122.56709402 444.15750816 115.25390625 448.12109375 C112.99402471 449.36579604 110.73491057 450.6118926 108.4765625 451.859375 C107.38230957 452.46217285 106.28805664 453.0649707 105.16064453 453.68603516 C101.29978626 455.83192369 97.48725598 458.05021863 93.69140625 460.30859375 C86.72166093 464.44502535 79.71388421 468.51231129 72.69140625 472.55859375 C71.58418213 473.19659912 70.47695801 473.83460449 69.33618164 474.49194336 C67.06553557 475.79998852 64.79478267 477.10784823 62.52392578 478.41552734 C58.13253561 480.94501356 53.74287438 483.4774888 49.35351562 486.01049805 C47.21315042 487.24548618 45.07252761 488.48002795 42.93164062 489.71411133 C37.83855166 492.65037774 32.74771379 495.59037055 27.66397095 498.54278564 C25.25456617 499.94177428 22.84400535 501.33876404 20.43334961 502.7355957 C18.72591643 503.72607446 17.02016653 504.71945315 15.31445312 505.71289062 C14.28513672 506.30908203 13.25582031 506.90527344 12.1953125 507.51953125 C11.28724854 508.04724121 10.37918457 508.57495117 9.44360352 509.11865234 C3.00065979 512.60481428 -4.75815193 512.46207494 -11.87109375 511.37109375 C-17.62568724 509.39723837 -22.65104116 506.46142601 -27.87109375 503.37109375 C-29.68012844 502.3292325 -31.49008041 501.28896287 -33.30078125 500.25 C-37.36838639 497.90299115 -41.42090399 495.53207278 -45.46484375 493.14453125 C-51.86769462 489.36512509 -58.30259139 485.64316578 -64.74609375 481.93359375 C-66.93360584 480.67319807 -69.1211058 479.41278133 -71.30859375 478.15234375 C-72.93667969 477.21455078 -72.93667969 477.21455078 -74.59765625 476.2578125 C-77.83584535 474.39140995 -81.07248813 472.52235612 -84.30859375 470.65234375 C-85.9023584 469.73171143 -85.9023584 469.73171143 -87.52832031 468.79248047 C-89.66595306 467.55758398 -91.80332481 466.32223558 -93.94042969 465.08642578 C-99.76181026 461.72482069 -105.596651 458.38890962 -111.44921875 455.08203125 C-113.3491111 454.00591999 -115.24881646 452.92947923 -117.14849854 451.85299683 C-118.94161667 450.83938839 -120.73805063 449.83185167 -122.53466797 448.82446289 C-138.71497395 439.6570403 -138.71497395 439.6570403 -143.24609375 433.37109375 C-143.70757812 432.75234375 -144.1690625 432.13359375 -144.64453125 431.49609375 C-147.88556636 425.88105203 -148.13486192 420.79403377 -147.99609375 414.49609375 C-147.98707031 413.71234375 -147.97804688 412.92859375 -147.96875 412.12109375 C-147.94537438 410.2042932 -147.90951028 408.28765184 -147.87109375 406.37109375 C-150.83740234 406.05981445 -150.83740234 406.05981445 -153.80371094 405.74853516 C-158.57090523 404.87819005 -161.24567067 402.23164904 -164.00756836 398.43139648 C-166.69998499 393.51259056 -166.46386528 388.51953682 -166.4375 383.03125 C-166.44369858 381.95032578 -166.44989716 380.86940155 -166.45628357 379.75572205 C-166.46336514 377.4772125 -166.46023693 375.19865102 -166.44750977 372.92016602 C-166.43365027 369.44775473 -166.46773594 365.97804322 -166.50585938 362.50585938 C-166.50681073 360.28515559 -166.50495085 358.06444847 -166.5 355.84375 C-166.51988731 354.29809105 -166.51988731 354.29809105 -166.54017639 352.72120667 C-166.45443596 346.03169622 -165.23462879 341.53640545 -160.87109375 336.37109375 C-156.8284664 332.98402759 -152.94587412 332.94530437 -147.87109375 332.37109375 C-147.8868042 331.16050293 -147.90251465 329.94991211 -147.91870117 328.70263672 C-147.97314344 324.19635717 -148.00749582 319.69010651 -148.03588867 315.18359375 C-148.05094274 313.23595281 -148.07139055 311.28834559 -148.09741211 309.34082031 C-148.13394428 306.53572247 -148.15085408 303.73107421 -148.1640625 300.92578125 C-148.17954636 300.05992401 -148.19503021 299.19406677 -148.21098328 298.30197144 C-148.21238493 293.22716435 -147.68420729 289.77263353 -144.87109375 285.37109375 C-141.21489023 282.04727237 -137.4004147 281.75385017 -132.6328125 281.875 C-128.38093624 282.6387741 -125.06872852 284.62837471 -121.4140625 286.86328125 C-118.9563017 288.32057106 -116.54640877 289.38165947 -113.87109375 290.37109375 C-113.47921875 289.48421875 -113.08734375 288.59734375 -112.68359375 287.68359375 C-109.36460494 281.61785559 -104.94455792 278.35261252 -98.87109375 275.37109375 C-97.55109375 275.37109375 -96.23109375 275.37109375 -94.87109375 275.37109375 C-94.85691406 274.80003906 -94.84273438 274.22898437 -94.828125 273.640625 C-93.83396684 256.73993622 -84.27620542 241.46478611 -71.87109375 230.37109375 C-60.8462429 221.55251087 -48.123216 215.68526879 -33.87109375 215.37109375 C-34.23460937 214.71625 -34.598125 214.06140625 -34.97265625 213.38671875 C-47.87109375 189.97109375 -47.87109375 189.97109375 -47.87109375 182.37109375 C-48.71671875 182.40589844 -49.56234375 182.44070312 -50.43359375 182.4765625 C-60.66463671 182.72071239 -68.12227892 181.33122513 -75.87109375 174.37109375 C-82.38505383 166.2726569 -82.23527309 157.97274536 -82.24609375 147.99609375 C-82.27058594 146.8153125 -82.29507813 145.63453125 -82.3203125 144.41796875 C-82.35020113 135.47130562 -80.95611424 128.13383858 -74.74609375 121.37109375 C-73.99972656 120.53578125 -73.99972656 120.53578125 -73.23828125 119.68359375 C-71.87109375 118.37109375 -71.87109375 118.37109375 -69.87109375 117.37109375 C-69.86229439 116.52236694 -69.86229439 116.52236694 -69.85331726 115.65649414 C-69.78861344 109.68475386 -69.70401311 103.71351491 -69.60864258 97.7421875 C-69.57570299 95.5235054 -69.54757841 93.30474572 -69.5246582 91.0859375 C-69.23100661 63.395217 -65.29122419 41.30807616 -45.55859375 20.62109375 C-33.41772746 8.88102635 -17.10019966 0.11628184 0 0 Z " fill="#020201" transform="translate(275.87109375,-0.37109375)"/>
<path d="M0 0 C4.26634366 1.42211455 7.14454638 2.48641425 10.8515625 4.6953125 C11.77066406 5.23800781 12.68976563 5.78070313 13.63671875 6.33984375 C14.62285156 6.92894531 15.60898438 7.51804687 16.625 8.125 C18.78313461 9.39965657 20.94201956 10.6730434 23.1015625 11.9453125 C24.22981445 12.61079102 25.35806641 13.27626953 26.52050781 13.96191406 C31.72904743 17.02186243 36.98070614 20.00631621 42.23114014 22.99359131 C51.51791867 28.27738729 60.7794723 33.60111302 70 39 C78.91024326 44.21487193 87.85035532 49.37503038 96.8125 54.5 C97.39523682 54.83370605 97.97797363 55.16741211 98.57836914 55.51123047 C100.26636234 56.47750897 101.95543657 57.44189822 103.64453125 58.40625 C104.60721924 58.95603516 105.56990723 59.50582031 106.56176758 60.07226562 C111.35124698 62.75761174 116.17545289 65.37830738 121 68 C121.00586624 69.04347595 121.01173248 70.0869519 121.01777649 71.16204834 C121.07496622 80.99133873 121.14770815 90.82040708 121.23571491 100.64947128 C121.28046035 105.70282144 121.31970727 110.75609019 121.34643555 115.80957031 C121.37242688 120.68561627 121.41279968 125.56134968 121.46318626 130.43720245 C121.47988323 132.29830287 121.49137985 134.15945738 121.49761391 136.02062225 C121.50722429 138.62573587 121.53524628 141.23004475 121.56762695 143.83496094 C121.56619186 144.60604187 121.56475677 145.3771228 121.5632782 146.17156982 C121.61901991 149.33823606 121.81992168 151.65822947 123.30827332 154.48297119 C125.06188158 156.34550201 125.06188158 156.34550201 128.5 156.4375 C131.82290264 156.26237149 131.82290264 156.26237149 133.69172668 154.98161316 C135.76564085 151.84030044 135.43904172 148.49996009 135.43237305 144.85668945 C135.4425647 144.02719788 135.45275635 143.1977063 135.46325684 142.34307861 C135.49346498 139.59974482 135.50266462 136.85675974 135.51171875 134.11328125 C135.52855965 132.21183606 135.54670909 130.31040205 135.56611633 128.40898132 C135.61368642 123.40310151 135.64345041 118.39726699 135.66955566 113.39123535 C135.69932587 108.28351901 135.74586831 103.17595885 135.79101562 98.06835938 C135.87712845 88.04565449 135.94443821 78.02291753 136 68 C136.8031665 67.6026767 137.60633301 67.20535339 138.43383789 66.79598999 C139.49852295 66.26696075 140.56320801 65.73793152 141.66015625 65.19287109 C142.71082275 64.67179779 143.76148926 64.15072449 144.84399414 63.61386108 C149.67751287 61.14218387 154.33331743 58.39536579 159 55.625 C161.10610909 54.38559357 163.21290871 53.14735997 165.3203125 51.91015625 C166.41118164 51.26965332 167.50205078 50.62915039 168.62597656 49.96923828 C174.35268521 46.6268626 180.11378329 43.34486823 185.875 40.0625 C188.24500629 38.7113136 190.61477416 37.35970981 192.984375 36.0078125 C193.56957916 35.67395035 194.15478333 35.3400882 194.75772095 34.99610901 C200.89078806 31.49502385 207.00907323 27.96843024 213.125 24.4375 C214.17437744 23.83212402 215.22375488 23.22674805 216.30493164 22.60302734 C221.34230129 19.69550039 226.37660723 16.78285546 231.40429688 13.85862732 C233.79641787 12.46782723 236.1899736 11.0795074 238.5836792 9.69143677 C240.27026548 8.71202584 241.95474134 7.72898353 243.63916016 6.74584961 C245.1732251 5.85651733 245.1732251 5.85651733 246.73828125 4.94921875 C248.08466675 4.16550903 248.08466675 4.16550903 249.45825195 3.3659668 C252 2 252 2 257 0 C257 11.22 257 22.44 257 34 C254.03 34.66 251.06 35.32 248 36 C243.65777208 38.64309525 241.89491602 41.32832339 240 46 C239.51715606 49.28786986 239.39998122 52.55571263 239.3125 55.875 C239.27833984 56.75414062 239.24417969 57.63328125 239.20898438 58.5390625 C239.1270686 60.69227705 239.06184421 62.84611551 239 65 C237.30118815 64.21468099 235.6023763 63.42936198 233.90356445 62.64404297 C228.20427005 60.71577073 221.6103605 63.62471179 216.19921875 65.4765625 C214 66 214 66 211 65 C209.5 63.00390625 209.5 63.00390625 208 60.5625 C206.08996212 57.46366251 205.09337542 56.06225028 202 54 C196.28451376 53.32189146 192.55608518 53.94967707 187.80859375 57.28125 C183.495348 61.38023084 181.56628143 66.97064125 179.99609375 72.59765625 C177.38551547 81.43372125 174.04587446 85.48195708 165.9375 90.0625 C164.36444336 90.88893453 162.79026297 91.71323441 161.21484375 92.53515625 C156.49289391 95.06733698 153.42665007 98.14669987 151 103 C150.90388248 104.62268991 150.87017648 106.24947306 150.875 107.875 C150.87242187 108.73867188 150.86984375 109.60234375 150.8671875 110.4921875 C150.99144147 112.83839475 151.20705784 114.78967373 152 117 C154.21433941 118.08742694 154.21433941 118.08742694 157 119 C159.37496259 120.26861356 161.67838693 121.63434525 164 123 C163.835 124.216875 163.67 125.43375 163.5 126.6875 C163.07326067 130.7064928 162.81159537 134.7100064 162.6875 138.75 C162.63142578 140.35101563 162.63142578 140.35101563 162.57421875 141.984375 C163.1014235 145.7183389 164.4039807 147.32210254 167 150 C170.2881956 151.6440978 173.45852817 151.62385358 177 151 C181.3330507 148.88741304 184.45288798 145.67263614 187.46875 141.96484375 C191.73738224 136.82647577 195.06646871 132.88908198 202.0078125 132.14453125 C204.67952915 132.00743897 207.29657963 131.99708543 209.96972656 132.09643555 C215.58800598 132.30180778 218.52248791 131.81723381 223 128 C227.03992553 123.30495141 228.13228586 119.05680237 228 113 C227.57077548 110.15541207 227.03019118 107.37906729 226.375 104.578125 C225.40886747 97.93596383 228.81997953 93.87382608 232.5 88.6875 C233.01175781 87.94693359 233.52351562 87.20636719 234.05078125 86.44335938 C236.81457527 82.48726899 236.81457527 82.48726899 238 81 C238.33 81 238.66 81 239 81 C239.03867187 82.16015625 239.03867187 82.16015625 239.078125 83.34375 C239.43671125 89.92869745 239.92848168 95.61885317 244 101 C248.22916435 104.66527577 251.54508591 105.33508148 257 106 C257.10871967 108.54283234 257.18762401 111.08095088 257.25 113.625 C257.30027344 114.69427734 257.30027344 114.69427734 257.3515625 115.78515625 C257.44760551 121.01950054 256.67402401 124.00887272 253 128 C249.72398485 130.27217337 246.26798115 132.13111812 242.75 134 C240.65399992 135.14801046 238.55897674 136.29780597 236.46484375 137.44921875 C235.38960449 138.03622559 234.31436523 138.62323242 233.20654297 139.22802734 C228.18941527 142.00055002 223.25236748 144.90523601 218.3125 147.8125 C209.50972183 152.97067755 200.67402385 158.06865687 191.8125 163.125 C191.22007507 163.46305664 190.62765015 163.80111328 190.01727295 164.14941406 C186.01228827 166.43429951 182.00615756 168.71717163 178 171 C174.31188254 173.10308634 170.62453015 175.20750818 166.9375 177.3125 C166.10669922 177.78606934 165.27589844 178.25963867 164.41992188 178.74755859 C160.11782892 181.2033508 155.82888508 183.67952609 151.5546875 186.18359375 C150.67433838 186.69817139 149.79398926 187.21274902 148.88696289 187.74291992 C147.20942888 188.72494149 145.53402055 189.71060615 143.86108398 190.70043945 C143.11930908 191.13445068 142.37753418 191.56846191 141.61328125 192.015625 C140.63548706 192.59231934 140.63548706 192.59231934 139.63793945 193.18066406 C138 194 138 194 136 194 C135.94392578 192.75283203 135.94392578 192.75283203 135.88671875 191.48046875 C135.78810547 189.85044922 135.78810547 189.85044922 135.6875 188.1875 C135.60048828 186.56908203 135.60048828 186.56908203 135.51171875 184.91796875 C135.22070982 182.02744454 135.22070982 182.02744454 133.67578125 180.140625 C130.8036652 178.18571151 128.340921 178.58238487 125 179 C121.97517225 182.01072598 121.560898 184.57691357 121.3125 188.75 C121.24675781 189.73484375 121.18101562 190.7196875 121.11328125 191.734375 C121.07589844 192.48203125 121.03851563 193.2296875 121 194 C117.21481268 192.5839494 113.80250679 190.84578935 110.30078125 188.83203125 C109.18606445 188.19305908 108.07134766 187.55408691 106.92285156 186.89575195 C105.71933652 186.20144646 104.51588756 185.50702642 103.3125 184.8125 C102.06882732 184.09765255 100.82501014 183.38305643 99.58105469 182.66870117 C97.00749108 181.18995105 94.4351512 179.7091034 91.86376953 178.2265625 C88.7276928 176.41858012 85.58922544 174.6148076 82.44963074 172.8129425 C79.54880014 171.14778541 76.64942498 169.48010347 73.75 167.8125 C72.68692627 167.20188721 71.62385254 166.59127441 70.52856445 165.9621582 C68.55910391 164.82666603 66.59625046 163.67960243 64.64160156 162.51879883 C62.06704171 160.98962045 62.06704171 160.98962045 59.53808594 159.84643555 C57.3108219 158.73354694 55.7045818 157.81751178 54 156 C52.8417287 152.41127664 52.80050912 148.93704111 52.75 145.1875 C52.64204969 143.10366761 52.52482506 141.02029545 52.3984375 138.9375 C52.34010742 137.92042969 52.28177734 136.90335938 52.22167969 135.85546875 C50.80747868 117.63906461 41.68718525 97.97108662 30 84 C28.1492818 82.43341696 26.29522734 80.87076487 24.4375 79.3125 C18.6142504 73.38963027 19.19030212 66.67106345 19.125 58.6875 C19.14876709 57.44589111 19.17253418 56.20428223 19.19702148 54.92504883 C19.48977282 46.12865113 19.48977282 46.12865113 15 39 C9.7400712 34.47401475 7.65278807 34.85030979 0 34 C0 22.78 0 11.56 0 0 Z " fill="#88C846" transform="translate(143,299)"/>
<path d="M0 0 C48.18 0 96.36 0 146 0 C146 89.69259962 146 89.69259962 127 111 C126.37222656 111.71027344 125.74445313 112.42054688 125.09765625 113.15234375 C112.16827963 126.92781455 94.52307797 133.95888841 75.9375 134.5625 C69.11144933 134.61805845 65.18114287 133.83526388 60.1328125 128.9453125 C53.60319128 122.98972391 42.77348876 118.43738551 33.90625 117.765625 C27.20331628 117.23314896 23.4025817 116.21171674 18.6875 111.25 C-7.61094211 78.58006541 0 42.9153117 0 0 Z " fill="#F8CFAE" transform="translate(240,99)"/>
<path d="M0 0 C0.95177628 -0.0071553 1.90355255 -0.01431061 2.88417053 -0.02168274 C3.92680054 -0.02437164 4.96943054 -0.02706055 6.0436554 -0.02983093 C7.14315018 -0.03640213 8.24264496 -0.04297333 9.37545776 -0.04974365 C13.02177496 -0.06948796 16.66805093 -0.08114227 20.31440735 -0.09111023 C21.55938303 -0.09518576 22.80435871 -0.09926128 24.08706093 -0.10346031 C29.99773531 -0.12217461 35.90839659 -0.13673856 41.81909341 -0.14507228 C48.62964125 -0.15483449 55.43986321 -0.18112848 62.25029629 -0.22157317 C68.15826988 -0.25544741 74.06616423 -0.26722357 79.97423744 -0.27127647 C82.482417 -0.27614571 84.990593 -0.2877692 87.49870872 -0.30631447 C91.01265193 -0.33068033 94.52574719 -0.32974489 98.03974915 -0.32279968 C99.072258 -0.33560974 100.10476685 -0.3484198 101.16856384 -0.36161804 C108.34128768 -0.3100523 113.86804713 0.90354623 119.2326355 5.87924194 C122.93097353 11.79992094 122.8929975 16.92679972 122.58003235 23.76826477 C122.54290666 26.02538465 122.50848424 28.28255032 122.47651672 30.53974915 C122.40010673 34.06812177 122.30238941 37.59190007 122.15644836 41.11811829 C121.0408088 53.62605142 121.0408088 53.62605142 124.75758362 65.08106995 C128.50319235 68.47367689 132.76177498 70.19880788 137.3651886 72.14717102 C140.20441154 76.40600543 140.10548462 80.15017285 139.3651886 85.14717102 C137.2272566 88.31720812 134.95517661 89.81307118 131.6542511 91.68232727 C126.06370645 94.59225602 126.06370645 94.59225602 122.3495636 99.38545227 C122.07140097 100.91792232 121.83968089 102.45964974 121.65815735 104.00654602 C121.0950273 108.1211496 118.98874186 110.8311089 115.8183136 113.40107727 C109.71817224 117.14197592 102.28321535 117.27124705 95.3651886 116.14717102 C92.43940735 114.36592102 92.43940735 114.36592102 90.3651886 112.14717102 C90.3651886 110.82717102 90.3651886 109.50717102 90.3651886 108.14717102 C84.0951886 108.14717102 77.8251886 108.14717102 71.3651886 108.14717102 C70.7051886 110.12717102 70.0451886 112.10717102 69.3651886 114.14717102 C65.72277054 116.57544972 63.97457024 116.41080651 59.63398743 116.43769836 C58.61385056 116.4477742 58.61385056 116.4477742 57.57310486 116.45805359 C55.3227356 116.47706263 53.07266443 116.48095992 50.82221985 116.48310852 C49.2538338 116.48953706 47.68544896 116.49626547 46.11706543 116.50328064 C42.82596561 116.51526251 39.5349708 116.5189608 36.24385071 116.51777649 C32.04180488 116.51757384 27.84043954 116.54481467 23.63855457 116.57932091 C20.39644326 116.60164909 17.15449377 116.60561215 13.91231346 116.60455704 C12.3642665 116.60690646 10.81621464 116.61569269 9.26824379 116.63122177 C-5.82786803 116.76841806 -5.82786803 116.76841806 -12.6348114 112.14717102 C-17.62954646 106.8962957 -17.78947384 102.43853041 -17.81181335 95.47236633 C-17.81838455 94.58584381 -17.82495575 93.69932129 -17.83172607 92.78593445 C-17.85145307 89.84905411 -17.86312061 86.91222491 -17.87309265 83.97529602 C-17.87716818 82.97178856 -17.88124371 81.9682811 -17.88544273 80.93436432 C-17.90630133 75.62248948 -17.92060374 70.31064046 -17.92997742 64.99873352 C-17.9410389 59.51650096 -17.97543658 54.03467462 -18.01514912 48.5525856 C-18.04131415 44.33346307 -18.04966919 40.11443732 -18.0532589 35.89524078 C-18.05812545 33.87466947 -18.06974136 31.8541025 -18.08829689 29.83361053 C-18.11268475 27.00193237 -18.11172384 24.17130521 -18.1047821 21.33955383 C-18.11759216 20.50916595 -18.13040222 19.67877808 -18.14360046 18.82322693 C-18.09287396 13.12957263 -16.92515999 9.82528963 -13.6348114 5.14717102 C-9.13435625 1.65702213 -5.66240558 0.02924184 0 0 Z " fill="#D4B956" transform="translate(66.63481140136719,134.8528289794922)"/>
<path d="M0 0 C0 11.22 0 22.44 0 34 C-2.97 34.66 -5.94 35.32 -9 36 C-13.34222792 38.64309525 -15.10508398 41.32832339 -17 46 C-17.48284394 49.28786986 -17.60001878 52.55571263 -17.6875 55.875 C-17.72166016 56.75414062 -17.75582031 57.63328125 -17.79101562 58.5390625 C-17.8729314 60.69227705 -17.93815579 62.84611551 -18 65 C-19.69881185 64.21468099 -21.3976237 63.42936198 -23.09643555 62.64404297 C-28.79572995 60.71577073 -35.3896395 63.62471179 -40.80078125 65.4765625 C-43 66 -43 66 -46 65 C-47.5 63.00390625 -47.5 63.00390625 -49 60.5625 C-50.91003788 57.46366251 -51.90662458 56.06225028 -55 54 C-60.71548624 53.32189146 -64.44391482 53.94967707 -69.19140625 57.28125 C-73.504652 61.38023084 -75.43371857 66.97064125 -77.00390625 72.59765625 C-79.61448453 81.43372125 -82.95412554 85.48195708 -91.0625 90.0625 C-92.63555664 90.88893453 -94.20973703 91.71323441 -95.78515625 92.53515625 C-100.50710609 95.06733698 -103.57334993 98.14669987 -106 103 C-106.09611752 104.62268991 -106.12982352 106.24947306 -106.125 107.875 C-106.12757813 108.73867188 -106.13015625 109.60234375 -106.1328125 110.4921875 C-106.00855853 112.83839475 -105.79294216 114.78967373 -105 117 C-102.78566059 118.08742694 -102.78566059 118.08742694 -100 119 C-97.62503741 120.26861356 -95.32161307 121.63434525 -93 123 C-93.165 124.216875 -93.33 125.43375 -93.5 126.6875 C-93.92673933 130.7064928 -94.18840463 134.7100064 -94.3125 138.75 C-94.36857422 140.35101563 -94.36857422 140.35101563 -94.42578125 141.984375 C-93.8985765 145.7183389 -92.5960193 147.32210254 -90 150 C-86.7118044 151.6440978 -83.54147183 151.62385358 -80 151 C-75.6669493 148.88741304 -72.54711202 145.67263614 -69.53125 141.96484375 C-65.26261776 136.82647577 -61.93353129 132.88908198 -54.9921875 132.14453125 C-52.32047085 132.00743897 -49.70342037 131.99708543 -47.03027344 132.09643555 C-41.41199402 132.30180778 -38.47751209 131.81723381 -34 128 C-29.96007447 123.30495141 -28.86771414 119.05680237 -29 113 C-29.42922452 110.15541207 -29.96980882 107.37906729 -30.625 104.578125 C-31.59113253 97.93596383 -28.18002047 93.87382608 -24.5 88.6875 C-23.98824219 87.94693359 -23.47648437 87.20636719 -22.94921875 86.44335938 C-20.18542473 82.48726899 -20.18542473 82.48726899 -19 81 C-18.67 81 -18.34 81 -18 81 C-17.97421875 81.7734375 -17.9484375 82.546875 -17.921875 83.34375 C-17.56328875 89.92869745 -17.07151832 95.61885317 -13 101 C-8.77083565 104.66527577 -5.45491409 105.33508148 0 106 C0.10871967 108.54283234 0.18762401 111.08095088 0.25 113.625 C0.30027344 114.69427734 0.30027344 114.69427734 0.3515625 115.78515625 C0.44760551 121.01950054 -0.32597599 124.00887272 -4 128 C-7.27601515 130.27217337 -10.73201885 132.13111812 -14.25 134 C-16.34600008 135.14801046 -18.44102326 136.29780597 -20.53515625 137.44921875 C-21.61039551 138.03622559 -22.68563477 138.62323242 -23.79345703 139.22802734 C-28.81058473 142.00055002 -33.74763252 144.90523601 -38.6875 147.8125 C-47.49027817 152.97067755 -56.32597615 158.06865687 -65.1875 163.125 C-65.77992493 163.46305664 -66.37234985 163.80111328 -66.98272705 164.14941406 C-70.98771173 166.43429951 -74.99384244 168.71717163 -79 171 C-82.68811746 173.10308634 -86.37546985 175.20750818 -90.0625 177.3125 C-91.30870117 178.022854 -91.30870117 178.022854 -92.58007812 178.74755859 C-96.88217108 181.2033508 -101.17111492 183.67952609 -105.4453125 186.18359375 C-106.32566162 186.69817139 -107.20601074 187.21274902 -108.11303711 187.74291992 C-109.79057112 188.72494149 -111.46597945 189.71060615 -113.13891602 190.70043945 C-113.88069092 191.13445068 -114.62246582 191.56846191 -115.38671875 192.015625 C-116.03858154 192.40008789 -116.69044434 192.78455078 -117.36206055 193.18066406 C-119 194 -119 194 -121 194 C-121.02578125 193.18015625 -121.0515625 192.3603125 -121.078125 191.515625 C-121.13484375 190.43796875 -121.1915625 189.3603125 -121.25 188.25 C-121.29640625 187.18265625 -121.3428125 186.1153125 -121.390625 185.015625 C-122.11328036 181.43940746 -123.19535741 180.2563666 -126 178 C-126.66 177.67 -127.32 177.34 -128 177 C-128.14515677 173.89632503 -128.23400853 170.79351973 -128.3125 167.6875 C-128.35439453 166.80642578 -128.39628906 165.92535156 -128.43945312 165.01757812 C-128.48575721 162.58198315 -128.48309672 160.38893348 -128 158 C-125.54296875 156.01953125 -125.54296875 156.01953125 -123 155 C-121.42070193 151.84140385 -121.8200366 148.44051926 -121.79467773 144.97021484 C-121.78477814 144.14086929 -121.77487854 143.31152374 -121.76467896 142.45704651 C-121.73302336 139.70837281 -121.70829051 136.95968182 -121.68359375 134.2109375 C-121.66302773 132.30807031 -121.64203135 130.40520773 -121.62062073 128.50234985 C-121.56536373 123.48823775 -121.51597047 118.47408418 -121.46777344 113.4598999 C-121.41758488 108.34562478 -121.36188502 103.23141006 -121.30664062 98.1171875 C-121.19901469 88.07817657 -121.09757958 78.03911325 -121 68 C-120.1968335 67.6026767 -119.39366699 67.20535339 -118.56616211 66.79598999 C-116.96913452 66.00244614 -116.96913452 66.00244614 -115.33984375 65.19287109 C-114.28917725 64.67179779 -113.23851074 64.15072449 -112.15600586 63.61386108 C-107.32248713 61.14218387 -102.66668257 58.39536579 -98 55.625 C-95.89389091 54.38559357 -93.78709129 53.14735997 -91.6796875 51.91015625 C-90.58881836 51.26965332 -89.49794922 50.62915039 -88.37402344 49.96923828 C-82.64731479 46.6268626 -76.88621671 43.34486823 -71.125 40.0625 C-68.75499371 38.7113136 -66.38522584 37.35970981 -64.015625 36.0078125 C-63.13781876 35.50701927 -63.13781876 35.50701927 -62.24227905 34.99610901 C-52.91427853 29.67118372 -43.61855944 24.29012825 -34.31884766 18.91601562 C-30.78065403 16.87336861 -27.24018311 14.83471305 -23.69921875 12.796875 C-21.9015896 11.76180196 -20.1040131 10.72663757 -18.30645752 9.69143677 C-16.59970307 8.70891654 -14.89238699 7.72737214 -13.18505859 6.74584961 C-12.15590332 6.15296143 -11.12674805 5.56007324 -10.06640625 4.94921875 C-9.15834229 4.42674561 -8.25027832 3.90427246 -7.31469727 3.3659668 C-1.61090259 0 -1.61090259 0 0 0 Z " fill="#D2E660" transform="translate(400,299)"/>
<path d="M0 0 C9.68065931 7.51419144 15.01355226 19.01139716 17 31 C17.26498896 36.11931844 17.31308652 41.23578574 17.35009766 46.36132812 C17.36652328 48.01934985 17.39363233 49.67730481 17.43212891 51.33496094 C17.73588902 64.52607389 16.55971805 78.01425177 8.73828125 89.25 C5.04659068 92.96657837 0.46482967 95.3962814 -4.08642578 97.91748047 C-6.11830544 99.06692604 -8.1028157 100.27870503 -10.08984375 101.50390625 C-11.47593543 102.33698173 -12.86264446 103.16903098 -14.25 104 C-14.88655518 104.39823975 -15.52311035 104.79647949 -16.17895508 105.20678711 C-21.08208525 108.06143122 -25.36734825 109.19282383 -31 108 C-34.84013576 106.36329427 -38.28647054 104.22302805 -41.8125 102 C-43.93642537 100.71046794 -46.06147291 99.42278278 -48.1875 98.13671875 C-49.85039062 97.12037354 -49.85039062 97.12037354 -51.546875 96.08349609 C-56.21873875 93.24669866 -60.96811705 90.54850606 -65.72436523 87.85644531 C-68.11982591 86.49955863 -70.49705577 85.11677073 -72.86352539 83.70996094 C-78.11903477 80.60754298 -83.20223821 77.79042087 -88.99609375 75.80859375 C-99.1941271 72.01567953 -99.1941271 72.01567953 -102 67 C-104.80592706 55.51069777 -103.12056844 42.63304293 -102 31 C-101.33178223 30.88027832 -100.66356445 30.76055664 -99.97509766 30.63720703 C-99.08870605 30.47075684 -98.20231445 30.30430664 -97.2890625 30.1328125 C-95.97736084 29.89135498 -95.97736084 29.89135498 -94.63916016 29.64501953 C-90.70969955 28.68464627 -87.52713674 26.95952041 -84 25 C-82.6078125 25.9590625 -82.6078125 25.9590625 -81.1875 26.9375 C-75.62878259 30.53431715 -70.46988112 30.67964645 -64 30 C-61.70586157 29.14297276 -59.74311374 28.14834058 -57.65625 26.875 C-56 26 -56 26 -53 26 C-51.32580562 26.9873454 -49.65948148 27.98812105 -48 29 C-42.43626676 30.71280218 -36.98537599 30.59212968 -31.4375 28.9375 C-22.95365097 24.15569418 -16.29751138 16.42423206 -9.5 9.5625 C-8.12328125 8.17901367 -8.12328125 8.17901367 -6.71875 6.76757812 C-4.47684945 4.51400101 -2.237334 2.25810925 0 0 Z " fill="#FCD2B1" transform="translate(298,245)"/>
<path d="M0 0 C7.0770333 6.77032399 10.97327579 14.42127237 13.625 23.75 C13.955 24.74 14.285 25.73 14.625 26.75 C14.7083804 28.88794525 14.73233747 31.02842009 14.72265625 33.16796875 C14.71782227 35.04838867 14.71782227 35.04838867 14.71289062 36.96679688 C14.70032227 38.93229492 14.70032227 38.93229492 14.6875 40.9375 C14.68248317 42.27278481 14.67792059 43.60807141 14.67382812 44.94335938 C14.66202695 48.21228473 14.64556297 51.48111991 14.625 54.75 C13.77796509 54.75081715 13.77796509 54.75081715 12.91381836 54.75165081 C-0.85039355 54.76664281 -14.61427839 54.80950183 -28.37831116 54.88209057 C-35.03466487 54.91635797 -41.69070624 54.94147023 -48.34716797 54.94555664 C-54.77293147 54.94983997 -61.19817735 54.9783071 -67.6237793 55.02343178 C-70.07329288 55.0364054 -72.52286841 55.04071498 -74.97241211 55.03615379 C-78.4079555 55.03124725 -81.84198642 55.05734607 -85.27734375 55.09057617 C-86.28651352 55.08195053 -87.29568329 55.07332489 -88.33543396 55.06443787 C-94.85422834 55.16989738 -99.37241914 56.43809228 -104.375 60.75 C-107.83003182 65.56359722 -107.90258973 70.39564358 -108.0625 76.125 C-108.11374023 77.37216797 -108.11374023 77.37216797 -108.16601562 78.64453125 C-108.24787146 80.67923351 -108.31312701 82.71459208 -108.375 84.75 C-109.035 84.75 -109.695 84.75 -110.375 84.75 C-110.45169318 78.13386547 -110.50386703 71.51784754 -110.53979492 64.90136719 C-110.55478852 62.65522986 -110.5751902 60.40912134 -110.60131836 58.16308594 C-110.63811931 54.91594285 -110.65482116 51.66919015 -110.66796875 48.421875 C-110.68345261 47.43386902 -110.69893646 46.44586304 -110.71488953 45.42791748 C-110.71888179 28.5124207 -104.04089029 14.38344317 -92.26171875 2.4765625 C-67.60220592 -20.81483121 -26.23873771 -22.07941188 0 0 Z " fill="#F6921D" transform="translate(333.375,29.25)"/>
<path d="M0 0 C0.95177628 -0.0071553 1.90355255 -0.01431061 2.88417053 -0.02168274 C3.92680054 -0.02437164 4.96943054 -0.02706055 6.0436554 -0.02983093 C7.14315018 -0.03640213 8.24264496 -0.04297333 9.37545776 -0.04974365 C13.02177496 -0.06948796 16.66805093 -0.08114227 20.31440735 -0.09111023 C21.55938303 -0.09518576 22.80435871 -0.09926128 24.08706093 -0.10346031 C29.99773531 -0.12217461 35.90839659 -0.13673856 41.81909341 -0.14507228 C48.62964125 -0.15483449 55.43986321 -0.18112848 62.25029629 -0.22157317 C68.15826988 -0.25544741 74.06616423 -0.26722357 79.97423744 -0.27127647 C82.482417 -0.27614571 84.990593 -0.2877692 87.49870872 -0.30631447 C91.01265193 -0.33068033 94.52574719 -0.32974489 98.03974915 -0.32279968 C99.072258 -0.33560974 100.10476685 -0.3484198 101.16856384 -0.36161804 C108.34128768 -0.3100523 113.86804713 0.90354623 119.2326355 5.87924194 C122.93097353 11.79992094 122.8929975 16.92679972 122.58003235 23.76826477 C122.54290666 26.02538465 122.50848424 28.28255032 122.47651672 30.53974915 C122.40010673 34.06812177 122.30238941 37.59190007 122.15644836 41.11811829 C121.0408088 53.62605142 121.0408088 53.62605142 124.75758362 65.08106995 C128.50319235 68.47367689 132.76177498 70.19880788 137.3651886 72.14717102 C140.20441154 76.40600543 140.10548462 80.15017285 139.3651886 85.14717102 C137.2272566 88.31720812 134.95517661 89.81307118 131.6542511 91.68232727 C126.06370645 94.59225602 126.06370645 94.59225602 122.3495636 99.38545227 C122.07140097 100.91792232 121.83968089 102.45964974 121.65815735 104.00654602 C121.0950273 108.1211496 118.98874186 110.8311089 115.8183136 113.40107727 C109.71817224 117.14197592 102.28321535 117.27124705 95.3651886 116.14717102 C92.4745636 114.29951477 92.4745636 114.29951477 90.3651886 112.14717102 C89.66818044 108.5072395 90.11654168 106.67998584 91.6776886 103.33467102 C95.335707 100.35721418 98.38717077 100.45893857 103.00190735 100.28779602 C105.32146668 100.41217853 105.32146668 100.41217853 106.3651886 99.14717102 C106.41814311 97.58501284 106.45748608 96.02238434 106.4901886 94.45967102 C106.85345041 90.36418706 107.49499121 88.36890164 110.6151886 85.64717102 C113.36701933 83.63861828 116.08403124 82.14146113 119.3651886 81.14717102 C117.1194356 78.72866779 115.0096072 76.9124873 112.2401886 75.08467102 C109.3651886 73.14717102 109.3651886 73.14717102 107.3651886 70.14717102 C107.0867157 67.69839478 107.0867157 67.69839478 107.04634094 64.75776672 C107.02627991 63.64147888 107.00621887 62.52519104 106.98554993 61.37507629 C106.97419006 60.20287537 106.9628302 59.03067444 106.9511261 57.82295227 C106.93348206 56.74477234 106.91583801 55.66659241 106.8976593 54.55574036 C106.8345397 50.52386963 106.7883894 46.49174769 106.7401886 42.45967102 C106.6164386 33.44654602 106.4926886 24.43342102 106.3651886 15.14717102 C70.7251886 15.14717102 35.0851886 15.14717102 -1.6348114 15.14717102 C-1.6554364 28.98654602 -1.6760614 42.82592102 -1.6973114 57.08467102 C-1.70641541 61.46095764 -1.71551941 65.83724426 -1.72489929 70.34614563 C-1.7282429 74.25533255 -1.7282429 74.25533255 -1.73025513 78.16452026 C-1.73179475 79.91114557 -1.73532006 81.65776979 -1.74038696 83.40438843 C-1.74766385 86.04384723 -1.74871884 88.68324086 -1.74833679 91.32270813 C-1.7519349 92.10605247 -1.75553301 92.8893968 -1.75924015 93.69647884 C-2.07732428 97.21449274 -2.07732428 97.21449274 -0.6348114 100.14717102 C1.42998435 100.24998486 3.49828319 100.28289982 5.56562805 100.28901672 C6.21283813 100.29249115 6.86004822 100.29596558 7.52687073 100.29954529 C8.93683317 100.30691398 10.3468073 100.31225341 11.75678444 100.31583595 C13.98858746 100.32298468 16.22016846 100.33863951 18.4519043 100.35717773 C24.79886296 100.40971835 31.14570277 100.45762021 37.49287415 100.47309875 C41.3716482 100.48317948 45.24986842 100.51250827 49.12842369 100.55441856 C50.60714211 100.56673567 52.08593876 100.5718485 53.5647068 100.56962013 C55.63592719 100.56726746 57.70555976 100.5894273 59.77656555 100.61714172 C60.9549147 100.62300797 62.13326385 100.62887421 63.34732056 100.63491821 C66.9793818 101.25142415 68.13337595 102.27512747 70.3651886 105.14717102 C71.3026886 107.58467102 71.3026886 107.58467102 71.3651886 110.14717102 C69.17115875 114.74418595 69.17115875 114.74418595 66.3651886 116.14717102 C64.16137911 116.25970553 61.95412329 116.30655174 59.74751282 116.32417297 C59.0675676 116.33074417 58.38762238 116.33731537 57.68707275 116.34408569 C55.43133942 116.36383259 53.17567287 116.37548754 50.9198761 116.38545227 C49.76263723 116.39156556 49.76263723 116.39156556 48.58201981 116.39780235 C44.49444598 116.41867426 40.40690577 116.43296813 36.31929016 116.44233704 C32.10940885 116.45337224 27.90006037 116.48773484 23.69036674 116.52750874 C20.44398563 116.55374338 17.19772977 116.56203516 13.95125198 116.56561852 C12.40040129 116.57047097 10.84955568 116.58204659 9.29880905 116.60065651 C-5.83596476 116.77091583 -5.83596476 116.77091583 -12.6348114 112.14717102 C-17.62954646 106.8962957 -17.78947384 102.43853041 -17.81181335 95.47236633 C-17.81838455 94.58584381 -17.82495575 93.69932129 -17.83172607 92.78593445 C-17.85145307 89.84905411 -17.86312061 86.91222491 -17.87309265 83.97529602 C-17.87716818 82.97178856 -17.88124371 81.9682811 -17.88544273 80.93436432 C-17.90630133 75.62248948 -17.92060374 70.31064046 -17.92997742 64.99873352 C-17.9410389 59.51650096 -17.97543658 54.03467462 -18.01514912 48.5525856 C-18.04131415 44.33346307 -18.04966919 40.11443732 -18.0532589 35.89524078 C-18.05812545 33.87466947 -18.06974136 31.8541025 -18.08829689 29.83361053 C-18.11268475 27.00193237 -18.11172384 24.17130521 -18.1047821 21.33955383 C-18.11759216 20.50916595 -18.13040222 19.67877808 -18.14360046 18.82322693 C-18.09287396 13.12957263 -16.92515999 9.82528963 -13.6348114 5.14717102 C-9.13435625 1.65702213 -5.66240558 0.02924184 0 0 Z " fill="#000000" transform="translate(66.63481140136719,134.8528289794922)"/>
<path d="M0 0 C1.03812836 -0.01921509 2.07625671 -0.03843018 3.14584351 -0.05822754 C4.257388 -0.06672729 5.3689325 -0.07522705 6.51416016 -0.08398438 C8.24323105 -0.10108459 8.24323105 -0.10108459 10.00723267 -0.11853027 C12.44309839 -0.13740034 14.87901482 -0.15048636 17.31494141 -0.15820312 C21.03329704 -0.17763027 24.74944751 -0.23970349 28.46728516 -0.30273438 C30.83706373 -0.31579421 33.20685807 -0.32629525 35.57666016 -0.33398438 C36.68415619 -0.35867798 37.79165222 -0.38337158 38.93270874 -0.40881348 C44.04438162 -0.37943746 47.71570458 -0.2406494 51.80053711 3.03027344 C54.3733781 5.66676188 55.8262923 8.06484064 56.82275391 11.65039062 C57.10699219 12.61460937 57.39123047 13.57882813 57.68408203 14.57226562 C57.95027344 15.56226563 58.21646484 16.55226562 58.49072266 17.57226562 C59.05464647 19.55809214 59.62342278 21.54254904 60.19775391 23.52539062 C60.43598877 24.3984082 60.67422363 25.27142578 60.91967773 26.17089844 C61.56613633 28.49800552 61.56613633 28.49800552 63.67822266 30.32226562 C66.00097442 30.72274007 68.33561623 31.06197602 70.67822266 31.32226562 C71.51862152 33.9034907 72.35072822 36.48690463 73.17822266 39.07226562 C73.41669922 39.801875 73.65517578 40.53148437 73.90087891 41.28320312 C74.12646484 41.9921875 74.35205078 42.70117188 74.58447266 43.43164062 C74.79394531 44.08100586 75.00341797 44.73037109 75.21923828 45.39941406 C75.67822266 47.32226562 75.67822266 47.32226562 75.67822266 51.32226562 C75.01822266 51.73476563 74.35822266 52.14726562 73.67822266 52.57226562 C71.25713798 54.27732123 71.25713798 54.27732123 71.41381836 57.92797852 C71.53062094 62.34633817 72.55096335 66.19867762 73.90869141 70.38085938 C74.14098953 71.12827896 74.37328766 71.87569855 74.61262512 72.64576721 C75.35308782 75.02056963 76.10881561 77.39015942 76.86572266 79.75976562 C77.59808991 82.08812471 78.32723672 84.41747714 79.05635071 86.74685669 C79.54110206 88.29407049 80.02725683 89.8408453 80.51481628 91.38717651 C82.61896013 98.07413146 84.60577859 104.79248317 86.56298828 111.52368164 C87.32928252 114.13374556 88.11026553 116.73387714 88.91748047 119.33105469 C92.18470788 129.95920573 94.45306121 142.55116602 89.49072266 153.00976562 C88.59863075 154.47587767 87.66459306 155.91784904 86.67822266 157.32226562 C86.30568359 157.90234375 85.93314453 158.48242188 85.54931641 159.08007812 C81.30804636 164.96170001 73.62085965 168.73124465 66.67822266 170.32226562 C63.6693843 170.46625294 60.68738617 170.44263217 57.67822266 170.32226562 C57.67822266 169.00226563 57.67822266 167.68226563 57.67822266 166.32226562 C58.40267578 166.23589844 59.12712891 166.14953125 59.87353516 166.06054688 C66.32593056 165.12279874 70.24683641 164.20815303 74.67822266 159.32226562 C76.32612939 155.89722239 76.93444952 153.13693451 76.96875 149.35180664 C76.9815097 148.3905336 76.99426941 147.42926056 77.00741577 146.43885803 C77.00964142 145.4116716 77.01186707 144.38448517 77.01416016 143.32617188 C77.02081696 142.25987045 77.02747375 141.19356903 77.03433228 140.09495544 C77.04444295 137.84318768 77.04914979 135.59139005 77.04882812 133.33959961 C77.0532028 129.90037597 77.08954477 126.46243438 77.12744141 123.0234375 C77.13330961 120.83268667 77.13727898 118.64192976 77.13916016 116.45117188 C77.15353119 115.42600967 77.16790222 114.40084747 77.18270874 113.34461975 C77.14435984 107.33404197 76.67706493 103.90026002 72.67822266 99.32226562 C69.15343489 96.28930871 66.51461314 95.13434519 61.97119141 94.71679688 C61.16576904 94.63921143 60.36034668 94.56162598 59.53051758 94.48168945 C58.91926025 94.42907959 58.30800293 94.37646973 57.67822266 94.32226562 C57.66887695 93.08138184 57.65953125 91.84049805 57.64990234 90.56201172 C57.60992982 85.94348697 57.54415059 81.32562324 57.47070312 76.70751953 C57.44253563 74.71151238 57.42130014 72.71539456 57.40722656 70.71923828 C57.38573862 67.84415198 57.3390584 64.97039034 57.28759766 62.09570312 C57.28636902 61.20797211 57.28514038 60.32024109 57.28387451 59.40560913 C57.15151587 53.76441353 56.32407164 50.67889187 52.67822266 46.32226562 C49.81460498 44.07228031 46.72027918 43.87016286 43.12207031 43.90673828 C37.81808265 44.80857514 33.30574133 47.98710075 28.74072266 50.69726562 C27.64058838 51.33196777 26.5404541 51.96666992 25.40698242 52.62060547 C22.15321627 54.5033027 18.91396698 56.40879612 15.67822266 58.32226562 C13.9674372 59.3277327 12.25651487 60.33296696 10.54541016 61.33789062 C8.4110622 62.59232194 6.27891284 63.84918473 4.15698242 65.12451172 C-0.23617827 67.75382618 -4.72058926 70.07505553 -9.32177734 72.32226562 C-9.3357959 71.47631836 -9.3357959 71.47631836 -9.35009766 70.61328125 C-9.40435221 68.0154457 -9.48788417 65.41930643 -9.57177734 62.82226562 C-9.59304688 61.49195313 -9.59304688 61.49195313 -9.61474609 60.13476562 C-9.88168529 52.87401956 -11.37699099 47.1160373 -16.75927734 42.00976562 C-19.24346057 40.37384008 -21.73910017 38.79808115 -24.32177734 37.32226562 C-23.94666016 36.90976562 -23.57154297 36.49726563 -23.18505859 36.07226562 C-16.01026876 27.97577735 -11.20280723 20.526458 -10.69677734 9.50976562 C-10.65810547 8.81689453 -10.61943359 8.12402344 -10.57958984 7.41015625 C-10.48604166 5.71459548 -10.40285371 4.01846851 -10.32177734 2.32226562 C-6.74834707 0.70674769 -3.91326741 0.05876857 0 0 Z " fill="#EC4F4F" transform="translate(357.32177734375,238.677734375)"/>
<path d="M0 0 C11.19573244 -0.02312269 22.39145924 -0.04091471 33.58721066 -0.05181217 C38.78528115 -0.05704116 43.98333536 -0.0641391 49.18139648 -0.07543945 C54.19342268 -0.08626776 59.20543318 -0.09227671 64.21747017 -0.09487724 C66.13412282 -0.09673159 68.05077457 -0.1003524 69.96742058 -0.10573006 C72.64228072 -0.11293975 75.31707514 -0.11399097 77.99194336 -0.11352539 C78.7925116 -0.11712067 79.59307983 -0.12071594 80.41790771 -0.12442017 C85.88594784 -0.11405216 85.88594784 -0.11405216 87 1 C87.09680029 2.63080742 87.12515771 4.26573647 87.12597656 5.89941406 C87.12978333 6.94429993 87.13359009 7.98918579 87.13751221 9.06573486 C87.13853943 10.20419861 87.13956665 11.34266235 87.140625 12.515625 C87.15895451 14.90495744 87.17852495 17.29428062 87.19921875 19.68359375 C87.2281981 23.46711773 87.25000001 27.25004922 87.25048828 31.03369141 C87.25381889 34.67404307 87.28835437 38.31301273 87.328125 41.953125 C87.3210553 43.08349182 87.3139856 44.21385864 87.30670166 45.378479 C87.34486857 51.70213853 87.34486857 51.70213853 90.33496094 57.11621094 C92.30358364 58.50773647 94.3007966 59.85901662 96.3125 61.1875 C97.199375 61.785625 98.08625 62.38375 99 63 C99 63.66 99 64.32 99 65 C96.84765625 66.69140625 96.84765625 66.69140625 94.0625 68.5625 C90.88197669 70.59502041 90.88197669 70.59502041 88 73 C87.71693766 75.54756104 87.55184214 78.09510022 87.37890625 80.65234375 C87 83 87 83 85 85 C82.23564758 85.22816877 79.49980684 85.2506749 76.7265625 85.265625 C75.82679688 85.50796875 74.92703125 85.7503125 74 86 C73.43539062 86.99773437 72.87078125 87.99546875 72.2890625 89.0234375 C70 92 70 92 67.81689453 92.4921875 C65.10647659 92.59058044 62.45806286 92.5229194 59.75 92.375 C58.34621094 92.33439453 58.34621094 92.33439453 56.9140625 92.29296875 C54.6070276 92.22234523 52.30469231 92.12380579 50 92 C49.731875 91.21625 49.46375 90.4325 49.1875 89.625 C48.15185568 86.71885077 48.15185568 86.71885077 45 85 C42.88191719 84.6739632 42.88191719 84.6739632 40.52856445 84.68115234 C39.62785721 84.66128265 38.72714996 84.64141296 37.79914856 84.62094116 C36.83031235 84.60938995 35.86147614 84.59783875 34.86328125 84.5859375 C33.86870407 84.56657135 32.87412689 84.5472052 31.84941101 84.5272522 C28.6705281 84.46743841 25.49160902 84.42106361 22.3125 84.375 C20.15818727 84.3368219 18.00388983 84.29777027 15.84960938 84.2578125 C10.56653034 84.16173528 5.28337983 84.0777107 0 84 C0 79.71 0 75.42 0 71 C1.22106445 70.9906543 2.44212891 70.98130859 3.70019531 70.97167969 C8.23295499 70.93179077 12.76503515 70.86603507 17.29736328 70.79248047 C19.25853747 70.76426447 21.21982551 70.74305306 23.18115234 70.72900391 C26.00156977 70.70758301 28.82061743 70.66093791 31.640625 70.609375 C32.51680481 70.60814636 33.39298462 70.60691772 34.29571533 70.60565186 C39.26273747 70.50138385 39.26273747 70.50138385 43.54589844 68.14941406 C45.19796887 66.00039475 45.19796887 66.00039475 45.625 63 C45.27394902 59.80118539 45.27394902 59.80118539 42.53076172 57.85058594 C38.10609235 55.53147421 34.7966848 55.39796875 29.8828125 55.390625 C29.02565643 55.37408875 28.16850037 55.35755249 27.28536987 55.34051514 C24.56517262 55.29218337 21.84553379 55.27069762 19.125 55.25 C17.27340963 55.22182785 15.4218451 55.19189868 13.5703125 55.16015625 C9.04692101 55.08642862 4.52383681 55.0367637 0 55 C0 52.69 0 50.38 0 48 C0.88061096 47.99413376 1.76122192 47.98826752 2.66851807 47.98222351 C10.96735693 47.92432043 19.26592596 47.8522575 27.56450272 47.76428509 C31.83090578 47.71955694 36.09721281 47.68030635 40.36376953 47.65356445 C44.48123499 47.62755564 48.59833139 47.58717081 52.71556854 47.53681374 C54.28638875 47.52012854 55.85727282 47.50862454 57.42816925 47.50238609 C59.62861318 47.49276263 61.82810946 47.4647265 64.02832031 47.43237305 C65.28074524 47.42126999 66.53317017 47.41016693 67.82354736 47.39872742 C71.22118634 46.97223536 72.6641723 46.47667344 75 44 C75.66666667 40.5 75.66666667 40.5 75 37 C72.6641723 34.52332656 71.22118634 34.02776464 67.82354736 33.60127258 C66.57112244 33.59016953 65.31869751 33.57906647 64.02832031 33.56762695 C63.3352327 33.5574353 62.64214508 33.54724365 61.92805481 33.53674316 C59.64466249 33.50662809 57.36168977 33.4973499 55.078125 33.48828125 C53.49199023 33.47143339 51.9058688 33.45328299 50.31976318 33.43388367 C46.15069752 33.38638889 41.98168597 33.35657631 37.81243896 33.33044434 C33.55584021 33.30063608 29.29942784 33.25410669 25.04296875 33.20898438 C16.69540409 33.12295724 8.34782245 33.05560951 0 33 C0 30.69 0 28.38 0 26 C0.86808289 25.99191315 1.73616577 25.98382629 2.6305542 25.97549438 C10.81161218 25.89755215 18.99250552 25.81026253 27.17335129 25.71247292 C31.37920585 25.66252804 35.58503551 25.61619787 39.79101562 25.578125 C43.85005664 25.54124929 47.90888846 25.49488319 51.96775055 25.44193649 C53.51625143 25.42340468 55.06479713 25.40829221 56.61336517 25.39665604 C58.7825004 25.37977263 60.9511578 25.35073331 63.12011719 25.31884766 C64.35477722 25.30552399 65.58943726 25.29220032 66.86151123 25.2784729 C69.84022071 25.01417695 71.54537225 24.66157935 74 23 C75.54163175 19.9167365 75.29747535 17.39121901 75 14 C72.67617697 11.51209262 71.21814398 11.02738274 67.82354736 10.60127258 C66.57112244 10.59016953 65.31869751 10.57906647 64.02832031 10.56762695 C63.3352327 10.5574353 62.64214508 10.54724365 61.92805481 10.53674316 C59.64466249 10.50662809 57.36168977 10.4973499 55.078125 10.48828125 C53.49199023 10.47143339 51.9058688 10.45328299 50.31976318 10.43388367 C46.15069752 10.38638889 41.98168597 10.35657631 37.81243896 10.33044434 C33.55584021 10.30063608 29.29942784 10.25410669 25.04296875 10.20898438 C16.69540409 10.12295724 8.34782245 10.05560951 0 10 C0 6.7 0 3.4 0 0 Z " fill="#FADA66" transform="translate(87,151)"/>
<path d="M0 0 C1.58722366 -0.01902626 1.58722366 -0.01902626 3.20651245 -0.03843689 C4.90663986 -0.03403343 4.90663986 -0.03403343 6.64111328 -0.02954102 C7.81602325 -0.03478287 8.99093323 -0.04002472 10.20144653 -0.04542542 C12.68441987 -0.05184304 15.16742361 -0.05051201 17.65039062 -0.04199219 C21.44082089 -0.03349346 25.2297385 -0.06223201 29.02001953 -0.09399414 C31.43538366 -0.09560659 33.85075046 -0.09502779 36.26611328 -0.09204102 C37.39548309 -0.10327499 38.52485291 -0.11450897 39.68844604 -0.12608337 C46.1961961 -0.06873104 50.33586639 0.43807094 55.58642578 4.40405273 C58.99637006 9.51896915 58.24961775 15.92647469 57.12158203 21.84155273 C53.96639326 32.29661612 47.8604714 41.06607644 38.43798828 46.68530273 C30.05507297 51.04815828 21.09891614 51.75398071 11.79736328 49.82592773 C2.73806097 46.66236185 -6.01359345 38.98652473 -10.41357422 30.40405273 C-13.24341366 23.7450576 -15.84746754 16.70387328 -14.41357422 9.40405273 C-11.2282854 3.0334751 -7.13999299 0.04161124 0 0 Z " fill="#040302" transform="translate(291.41357421875,176.595947265625)"/>
<path d="M0 0 C10.45333067 5.1776347 16.95495162 12.23583324 21.22135925 23.09606934 C22.76666814 28.36609181 22.57039516 33.58785332 22.47265625 39.0390625 C22.46699646 40.2456955 22.46133667 41.45232849 22.45550537 42.69552612 C22.43327225 46.51618606 22.38309802 50.33587771 22.33203125 54.15625 C22.31194947 56.76040304 22.29370166 59.36457091 22.27734375 61.96875 C22.23345022 68.32324213 22.16666906 74.67717686 22.08203125 81.03125 C21.09203125 81.03125 20.10203125 81.03125 19.08203125 81.03125 C19.08315918 80.46204834 19.08428711 79.89284668 19.08544922 79.30639648 C19.07323934 76.69268604 19.01546467 74.08181958 18.95703125 71.46875 C18.95960938 70.57349609 18.9621875 69.67824219 18.96484375 68.75585938 C18.79662858 63.01551668 17.81259972 59.68030308 13.94970703 55.39086914 C9.72789858 52.31750297 5.12351447 51.77480103 0.02734375 51.6171875 C-1.08125 51.57851562 -2.18984375 51.53984375 -3.33203125 51.5 C-5.04519531 51.45359375 -5.04519531 51.45359375 -6.79296875 51.40625 C-7.95828125 51.36757812 -9.12359375 51.32890625 -10.32421875 51.2890625 C-13.18864739 51.19514681 -16.05307567 51.10947017 -18.91796875 51.03125 C-18.93255127 50.25112549 -18.94713379 49.47100098 -18.9621582 48.66723633 C-19.03761386 45.05896302 -19.13394591 41.45151888 -19.23046875 37.84375 C-19.25302734 36.61720703 -19.27558594 35.39066406 -19.29882812 34.12695312 C-19.61840231 23.11616978 -21.33537813 13.06930565 -25.91796875 3.03125 C-25.91796875 2.04125 -25.91796875 1.05125 -25.91796875 0.03125 C-18.12580216 -3.64512935 -7.94551507 -3.18410251 0 0 Z " fill="#F3901D" transform="translate(381.91796875,32.96875)"/>
<path d="M0 0 C-2.15879071 1.63805197 -4.33514319 3.23608861 -6.55078125 4.796875 C-20.67697445 14.78711065 -32.6181896 28.45357795 -36 46 C-37.06000828 53.96452874 -37.57792511 61.9795887 -38 70 C-38.59893066 70.04680908 -39.19786133 70.09361816 -39.81494141 70.1418457 C-45.89416344 70.66406578 -45.89416344 70.66406578 -51.375 73.1875 C-52.00148437 73.57292969 -52.62796875 73.95835938 -53.2734375 74.35546875 C-58.31085864 79.1535554 -58.50550453 84.85436229 -58.6875 91.375 C-58.73874023 92.62216797 -58.73874023 92.62216797 -58.79101562 93.89453125 C-58.87287146 95.92923351 -58.93812701 97.96459208 -59 100 C-59.66 100 -60.32 100 -61 100 C-61.07669318 93.38386547 -61.12886703 86.76784754 -61.16479492 80.15136719 C-61.17978852 77.90522986 -61.2001902 75.65912134 -61.22631836 73.41308594 C-61.26311931 70.16594285 -61.27982116 66.91919015 -61.29296875 63.671875 C-61.30845261 62.68386902 -61.32393646 61.69586304 -61.33988953 60.67791748 C-61.34388179 43.7624207 -54.66589029 29.63344317 -42.88671875 17.7265625 C-30.85272563 6.36021987 -16.76990403 -0.33478937 0 0 Z " fill="#DC821A" transform="translate(284,14)"/>
<path d="M0 0 C2.17331217 -0.0117658 4.34365433 -0.06088328 6.51635742 -0.11157227 C16.62640271 -0.22501319 24.90785087 1.65949829 34.2722168 5.42553711 C31.98925594 10.81575325 27.5940104 14.55116234 23.53369141 18.64453125 C22.09238413 20.10526642 20.67382913 21.58592621 19.25463867 23.06811523 C18.33875977 23.99430664 17.42288086 24.92049805 16.47924805 25.87475586 C15.6488501 26.72384521 14.81845215 27.57293457 13.96289062 28.44775391 C10.67906547 30.86153374 8.30715857 31.24225338 4.2722168 31.42553711 C1.01169125 29.44593232 -0.06660166 25.74790019 -1.7277832 22.42553711 C-4.58884807 20.99500467 -6.55805503 21.0838192 -9.7277832 21.42553711 C-12.13120481 23.32848035 -12.13120481 23.32848035 -14.1652832 25.86303711 C-19.0564738 31.07536648 -19.0564738 31.07536648 -22.5402832 31.80053711 C-25.7277832 31.42553711 -25.7277832 31.42553711 -28.0402832 29.23803711 C-29.3846643 26.99740195 -30.56150567 24.75809219 -31.7277832 22.42553711 C-34.63074126 20.97405808 -36.50040099 21.05314685 -39.7277832 21.42553711 C-43.38221376 24.00513515 -46.24562366 26.7022978 -48.7277832 30.42553711 C-49.3877832 30.09553711 -50.0477832 29.76553711 -50.7277832 29.42553711 C-39.59164465 9.69760954 -22.47730346 0.05730828 0 0 Z " fill="#F3901D" transform="translate(251.727783203125,229.574462890625)"/>
<path d="M0 0 C2.53311693 2.41579362 4.52315528 4.68790757 6.3125 7.6875 C8.29135539 10.48436247 8.8363502 10.94335199 12.25 12.125 C16.91755826 11.96941472 20.69490566 10.72789501 25 9 C23.59962426 13.12703326 21.59119617 15.85798264 18.8125 19.1875 C15.86053657 23.13055584 14.42362199 25.47490667 14.9375 30.4375 C15.36469105 32.61653334 15.91561839 34.70893173 16.53344727 36.84008789 C17.04494896 39.2080918 17.09808351 41.33032162 17.0625 43.75 C17.05347656 44.54921875 17.04445313 45.3484375 17.03515625 46.171875 C17.02355469 46.77515625 17.01195312 47.3784375 17 48 C16.39639648 47.96745117 15.79279297 47.93490234 15.17089844 47.90136719 C2.3144315 46.996581 2.3144315 46.996581 -9.1328125 51.73828125 C-12.10756083 54.56999646 -14.61427456 57.66300429 -17 61 C-17.89647244 57.79262081 -17.82447146 56.2062779 -17 53 C-16.87034848 49.30493178 -16.82738606 46.51784183 -18 43 C-19.99054876 42.30562253 -21.99255385 41.64389782 -24 41 C-26.0340906 39.71927629 -28.04402816 38.39712274 -30 37 C-27.93542868 34.79845232 -25.90358053 33.20041698 -23.3125 31.66015625 C-22.61382812 31.23669922 -21.91515625 30.81324219 -21.1953125 30.37695312 C-19.73348966 29.5016802 -18.26994635 28.62927422 -16.8046875 27.75976562 C-16.10601562 27.33501953 -15.40734375 26.91027344 -14.6875 26.47265625 C-14.05199219 26.09375244 -13.41648437 25.71484863 -12.76171875 25.32446289 C-9.20432412 22.65000809 -7.54967689 19.30737041 -5.95703125 15.234375 C-5.60576172 14.34492188 -5.25449219 13.45546875 -4.89257812 12.5390625 C-4.53615234 11.61867188 -4.17972656 10.69828125 -3.8125 9.75 C-3.26045898 8.34621094 -3.26045898 8.34621094 -2.69726562 6.9140625 C-1.79267369 4.61146484 -0.89380599 2.3068011 0 0 Z " fill="#F9C101" transform="translate(339,369)"/>
<path d="M0 0 C0.75333115 -0.00700928 1.50666229 -0.01401855 2.28282166 -0.02124023 C4.76973483 -0.03882587 7.25550716 -0.02719508 9.74243164 -0.01367188 C11.47351805 -0.01636693 13.20460298 -0.02024946 14.9356842 -0.02526855 C18.56306374 -0.03116458 22.19004912 -0.02259854 25.81738281 -0.00390625 C30.46253108 0.01886658 35.10675404 0.00577187 39.75186825 -0.01819611 C43.32673586 -0.03266595 46.90138495 -0.02804241 50.47625923 -0.01768494 C52.18864616 -0.01502003 53.90105305 -0.01827911 55.61341667 -0.02760315 C58.00973741 -0.03778672 60.404571 -0.0222435 62.80078125 0 C63.85842682 -0.01214539 63.85842682 -0.01214539 64.93743896 -0.02453613 C68.43645138 0.03549824 70.40497086 0.48054238 73.40895081 2.33117676 C75.46508789 4.51757812 75.46508789 4.51757812 76.02758789 8.01757812 C75.36639638 12.13165865 74.76622713 13.06642986 71.46508789 15.51757812 C68.78042947 15.91246178 66.50507772 16.0654059 63.82250977 16.03515625 C63.05781876 16.04216553 62.29312775 16.0491748 61.50526428 16.05639648 C58.98108455 16.07398163 56.45802874 16.06235261 53.93383789 16.04882812 C52.17793564 16.05152291 50.42203484 16.05540521 48.6661377 16.0604248 C44.98748557 16.06632053 41.30922215 16.05775468 37.63061523 16.0390625 C32.91587129 16.01627269 28.20203811 16.0293954 23.48732758 16.05335236 C19.86188905 16.06780845 16.23666635 16.06320526 12.61122131 16.05284119 C10.8728881 16.05017337 9.13453528 16.05344562 7.39622498 16.0627594 C4.96617756 16.07292219 2.5376037 16.05742944 0.10766602 16.03515625 C-0.96939857 16.04730164 -0.96939857 16.04730164 -2.06822205 16.05969238 C-5.42715081 16.00267208 -7.2519359 15.72735696 -9.98132324 13.70397949 C-12.25610367 10.50262864 -12.08181519 8.34589966 -11.53491211 4.51757812 C-8.36972818 0.08235242 -5.10458388 -0.05845027 0 0 Z " fill="#030301" transform="translate(87.534912109375,160.482421875)"/>
<path d="M0 0 C0.75333115 -0.00700928 1.50666229 -0.01401855 2.28282166 -0.02124023 C4.76973483 -0.03882587 7.25550716 -0.02719508 9.74243164 -0.01367188 C11.47351805 -0.01636693 13.20460298 -0.02024946 14.9356842 -0.02526855 C18.56306374 -0.03116458 22.19004912 -0.02259854 25.81738281 -0.00390625 C30.46253108 0.01886658 35.10675404 0.00577187 39.75186825 -0.01819611 C43.32673586 -0.03266595 46.90138495 -0.02804241 50.47625923 -0.01768494 C52.18864616 -0.01502003 53.90105305 -0.01827911 55.61341667 -0.02760315 C58.00973741 -0.03778672 60.404571 -0.0222435 62.80078125 0 C63.85842682 -0.01214539 63.85842682 -0.01214539 64.93743896 -0.02453613 C68.43549229 0.03548179 70.40297756 0.47926355 73.40504456 2.33117676 C75.46508789 4.51757812 75.46508789 4.51757812 76.09008789 8.01757812 C75.46508789 11.51757812 75.46508789 11.51757812 73.40504456 13.70397949 C69.79617389 15.93021737 66.91314753 16.08238027 62.80078125 16.03515625 C62.04569778 16.04216553 61.29061432 16.0491748 60.51264954 16.05639648 C58.02636525 16.07394665 55.54122671 16.06236632 53.05493164 16.04882812 C51.32287885 16.05152363 49.59082753 16.05540655 47.85877991 16.0604248 C44.23318031 16.06631555 40.60797551 16.05776972 36.98242188 16.0390625 C32.33608354 16.01625589 27.69066856 16.02940913 23.04436398 16.05335236 C19.46953881 16.0678074 15.89493255 16.06320605 12.32010078 16.05284119 C10.60688734 16.05017396 8.89365398 16.05344354 7.18046379 16.0627594 C4.7864402 16.07292241 2.39391221 16.05743011 0 16.03515625 C-1.06068192 16.04730164 -1.06068192 16.04730164 -2.14279175 16.05969238 C-5.47817644 16.00221893 -7.2674175 15.71642693 -9.97459412 13.70397949 C-12.25833137 10.50388421 -12.08233805 8.34955973 -11.53491211 4.51757812 C-8.36972818 0.08235242 -5.10458388 -0.05845027 0 0 Z " fill="#000000" transform="translate(87.534912109375,183.482421875)"/>
<path d="M0 0 C4.29629914 3.87955055 6.91268802 7.87691517 9.5625 13 C10.14837891 14.12015503 10.14837891 14.12015503 10.74609375 15.26293945 C15.6981957 24.99577238 19.21160132 35.34150267 19.0625 46.375 C19.05347656 47.24898438 19.04445312 48.12296875 19.03515625 49.0234375 C19.02355469 49.67570312 19.01195312 50.32796875 19 51 C13.17108342 48.80269796 7.80674986 45.76552539 2.36181641 42.77001953 C1.12361093 42.09165309 -0.11761018 41.41876139 -1.36181641 40.75146484 C-15.38524905 33.2295019 -15.38524905 33.2295019 -19 26 C-19.0716735 23.44842345 -19.09308442 20.92527029 -19.0625 18.375 C-19.05798828 17.66859375 -19.05347656 16.9621875 -19.04882812 16.234375 C-19.03703875 14.48954725 -19.01910324 12.744763 -19 11 C-18.27554688 10.91363281 -17.55109375 10.82726562 -16.8046875 10.73828125 C-10.33578307 9.79813381 -6.4894733 8.8348174 -2 4 C-0.62745412 1.85019503 -0.62745412 1.85019503 0 0 Z " fill="#FAC101" transform="translate(162,394)"/>
<path d="M0 0 C7.59 0 15.18 0 23 0 C23 13.86 23 27.72 23 42 C15.41 42 7.82 42 0 42 C0 28.14 0 14.28 0 0 Z " fill="#FED4B2" transform="translate(397,348)"/>
<path d="M0 0 C7.59 0 15.18 0 23 0 C23 13.86 23 27.72 23 42 C15.41 42 7.82 42 0 42 C0 28.14 0 14.28 0 0 Z " fill="#FED4B2" transform="translate(125,348)"/>
<path d="M0 0 C1.28335929 2.56671859 0.69035385 3.2622979 0 6 C-0.08091092 8.02468711 -0.10758899 10.05184619 -0.09765625 12.078125 C-0.09282227 13.81835938 -0.09282227 13.81835938 -0.08789062 15.59375 C-0.07951172 16.8003125 -0.07113281 18.006875 -0.0625 19.25 C-0.05798828 20.47203125 -0.05347656 21.6940625 -0.04882812 22.953125 C-0.03704815 25.96879946 -0.02059853 28.98437498 0 32 C0.5775 31.18789063 1.155 30.37578125 1.75 29.5390625 C4 27 4 27 6 26.3359375 C9.76312595 26.40943605 11.47652668 26.58122134 14.5 29 C16.54454831 33.08909662 16.43397023 35.44331263 16 40 C14.82986774 43.4203866 14.12689277 43.91540482 11 46 C8.0625 46.375 8.0625 46.375 5 46 C2.625 44 2.625 44 1 42 C0.67 44.97 0.34 47.94 0 51 C-2.27208206 49.8774654 -4.54267645 48.75208479 -6.8125 47.625 C-7.77639648 47.14933594 -7.77639648 47.14933594 -8.75976562 46.6640625 C-11.63194461 45.23541389 -14.3267821 43.78214527 -17 42 C-17.2667616 39.23371085 -17.34804189 36.69380369 -17.29296875 33.9296875 C-17.28872391 33.13345978 -17.28447906 32.33723206 -17.28010559 31.51687622 C-17.26328834 28.96924271 -17.22563179 26.42239511 -17.1875 23.875 C-17.17245705 22.14975099 -17.15876796 20.42448961 -17.14648438 18.69921875 C-17.11337501 14.46584218 -17.06157285 10.23305441 -17 6 C-15.98897217 5.82041748 -15.98897217 5.82041748 -14.95751953 5.63720703 C-14.06661621 5.47075684 -13.17571289 5.30430664 -12.2578125 5.1328125 C-11.37754395 4.97184082 -10.49727539 4.81086914 -9.59033203 4.64501953 C-5.88454805 3.7222409 -3.18586661 2.0777391 0 0 Z " fill="#E3BD9F" transform="translate(213,270)"/>
<path d="M0 0 C1.047892 -0.0038269 2.095784 -0.00765381 3.1754303 -0.01159668 C5.39031943 -0.01431718 7.60524061 -0.00694642 9.82006836 0.00976562 C13.20694847 0.03115082 16.59170201 0.00997859 19.97851562 -0.015625 C22.13151509 -0.01298133 24.28451324 -0.00785554 26.4375 0 C27.44908676 -0.00809692 28.46067352 -0.01619385 29.50291443 -0.02453613 C33.91102281 0.03411092 36.56817945 0.10877071 40.42407227 2.38085938 C42.28515625 4.53125 42.28515625 4.53125 42.91015625 7.46875 C42.04420924 11.71189037 40.75835239 12.93330901 37.28515625 15.53125 C33.66917714 16.2645503 30.11667168 16.20837676 26.4375 16.16015625 C24.86422691 16.16377419 24.86422691 16.16377419 23.25917053 16.16746521 C21.04603283 16.16648732 18.8328705 16.15310765 16.61987305 16.12817383 C13.23076453 16.09383216 9.84425869 16.10752736 6.45507812 16.12695312 C4.30337431 16.12005558 2.15167723 16.11038403 0 16.09765625 C-1.52041649 16.10509605 -1.52041649 16.10509605 -3.07154846 16.11268616 C-10.04007438 15.99585247 -10.04007438 15.99585247 -13.35327148 13.71459961 C-15.37002936 10.48062693 -15.24728582 8.25834451 -14.71484375 4.53125 C-11.27580249 -0.98897545 -5.82626879 -0.04654138 0 0 Z " fill="#040401" transform="translate(90.71484375,206.46875)"/>
<path d="M0 0 C3.5 0.5625 3.5 0.5625 5.703125 2.453125 C8.29055216 6.93049895 7.93629748 10.80555889 7.75 15.875 C7.73195313 16.80634766 7.71390625 17.73769531 7.6953125 18.69726562 C7.64834888 20.98674197 7.58269475 23.27408184 7.5 25.5625 C9.40652344 25.53736328 9.40652344 25.53736328 11.3515625 25.51171875 C14.60145269 25.4688703 16.79329304 25.58452183 19.5 27.5625 C21.5 30.5625 21.5 30.5625 21.375 34.0625 C20.5 37.5625 20.5 37.5625 18.94140625 39.2578125 C15.52817374 41.08184395 12.33480231 40.99939739 8.5625 40.9375 C7.85931641 40.94910156 7.15613281 40.96070313 6.43164062 40.97265625 C1.9446347 40.94742473 -1.04952871 40.48830213 -4.5 37.5625 C-8.33534067 31.08338081 -7.98017417 25.27745769 -7.9375 17.9375 C-7.95748047 16.7103125 -7.97746094 15.483125 -7.99804688 14.21875 C-7.99740234 13.04054687 -7.99675781 11.86234375 -7.99609375 10.6484375 C-7.99794678 9.5764209 -7.9997998 8.5044043 -8.00170898 7.39990234 C-7.13065244 2.47366428 -4.80910682 0.77289217 0 0 Z " fill="#040403" transform="translate(306.5,131.4375)"/>
<path d="M0 0 C13.53 0 27.06 0 41 0 C39.87134657 6.77192059 37.72632477 12.11662819 32.15234375 16.4296875 C26.53238834 19.69904585 21.40415303 20.91339622 15 20 C8.50808303 17.31528568 3.81450854 12.62901708 0.6875 6.375 C0 4 0 4 0 0 Z " fill="#F88074" transform="translate(293,192)"/>
<path d="M0 0 C9.25 0 9.25 0 13 3 C17.20316824 7.65771987 16.47844797 12.38915195 16.4375 18.375 C16.4674707 19.91800781 16.4674707 19.91800781 16.49804688 21.4921875 C16.49410024 27.61736075 16.15382137 31.37432928 12 36 C10 37 10 37 0 37 C0 24.79 0 12.58 0 0 Z " fill="#F5CDAC" transform="translate(401,129)"/>
<path d="M0 0 C2.97 0 5.94 0 9 0 C9 12.21 9 24.42 9 37 C-1 37 -1 37 -4.0859375 35.3125 C-7.11981493 30.06203457 -6.72290124 24.95239539 -6.625 19 C-6.64433594 17.824375 -6.66367188 16.64875 -6.68359375 15.4375 C-6.62921576 5.86697429 -6.62921576 5.86697429 -3.5234375 2.75 C-2.69070312 2.1725 -1.85796875 1.595 -1 1 C-0.67 0.67 -0.34 0.34 0 0 Z " fill="#FCD2B1" transform="translate(216,129)"/>
<path d="M0 0 C3.5 0.5 3.5 0.5 5.9375 2.125 C7.89644605 5.102598 7.81785906 7.00355037 7.5 10.5 C8.675625 10.933125 8.675625 10.933125 9.875 11.375 C12.5 12.5 12.5 12.5 14.5 14.5 C14.91652031 18.24868276 14.9979164 20.61733001 13.125 23.9375 C9.02304033 26.37914266 5.14766774 26.22573991 0.5 25.5 C-3.00155146 23.81175198 -4.88737714 22.72524573 -6.6328125 19.234375 C-7.59890978 16.18812231 -7.83463821 13.63011722 -7.875 10.4375 C-7.90335938 9.41527344 -7.93171875 8.39304687 -7.9609375 7.33984375 C-7.15933001 2.40112642 -4.81840919 0.68834417 0 0 Z " fill="#040303" transform="translate(251.5,300.5)"/>
<path d="M0 0 C6 2 6 2 13 6 C12.67 15.9 12.34 25.8 12 36 C8.04 35.34 4.08 34.68 0 34 C0 22.78 0 11.56 0 0 Z " fill="#75AD3D" transform="translate(143,299)"/>
<path d="M0 0 C0.99 0.515625 1.98 1.03125 3 1.5625 C3.70898438 1.90667969 4.41796875 2.25085938 5.1484375 2.60546875 C7.11592425 3.56159828 9.06160015 4.5490219 11 5.5625 C11.77368259 18.89503024 11.77368259 18.89503024 7.484375 24.0078125 C4.83740705 26.75199652 1.98628422 29.19610344 -1 31.5625 C-1.89647244 28.35512081 -1.82447146 26.7687779 -1 23.5625 C-0.87034848 19.86743178 -0.82738606 17.08034183 -2 13.5625 C-3.99054876 12.86812253 -5.99255385 12.20639782 -8 11.5625 C-10.0340906 10.28177629 -12.04402816 8.95962274 -14 7.5625 C-10.20689926 3.58150573 -5.75525478 -0.83930799 0 0 Z " fill="#DFAC01" transform="translate(323,398.4375)"/>
<path d="M0 0 C2.64 0 5.28 0 8 0 C8 13.86 8 27.72 8 42 C5.36 42 2.72 42 0 42 C0 28.14 0 14.28 0 0 Z " fill="#DBB69A" transform="translate(397,348)"/>
<path d="M0 0 C2.64 0 5.28 0 8 0 C8 13.86 8 27.72 8 42 C5.36 42 2.72 42 0 42 C0 28.14 0 14.28 0 0 Z " fill="#D9B598" transform="translate(125,348)"/>
<path d="M0 0 C3.25018911 1.00437706 4.2948236 2.77061157 6.03515625 5.62890625 C6.49609375 9.0390625 6.49609375 9.0390625 6.41015625 12.69140625 C6.39726562 13.89925781 6.384375 15.10710937 6.37109375 16.3515625 C6.05793569 19.40667429 5.75605306 21.12840853 4.03515625 23.62890625 C1.03515625 25.62890625 1.03515625 25.62890625 -2.46484375 25.50390625 C-5.96484375 24.62890625 -5.96484375 24.62890625 -7.66015625 23.07421875 C-9.4909437 19.64286264 -9.40165583 16.42004685 -9.33984375 12.62890625 C-9.35144531 11.91734375 -9.36304688 11.20578125 -9.375 10.47265625 C-9.35737098 7.32293771 -9.14639037 4.97923015 -7.6875 2.1640625 C-5.3263078 0.05987081 -3.07810744 0.10082433 0 0 Z " fill="#070605" transform="translate(357.96484375,129.37109375)"/>
<path d="M0 0 C2.1953125 1.5625 2.1953125 1.5625 4 4 C4.4609375 7.53125 4.4609375 7.53125 4.375 11.5 C4.36210937 12.8096875 4.34921875 14.119375 4.3359375 15.46875 C4.03299002 18.65322117 3.81207224 20.42174956 2 23 C-1 25 -1 25 -4.5 24.875 C-8 24 -8 24 -9.69140625 22.4453125 C-11.52605448 19.01698476 -11.47528703 15.79244399 -11.4375 12 C-11.45748047 11.2884375 -11.47746094 10.576875 -11.49804688 9.84375 C-11.49480619 6.36973437 -11.26606414 4.36318042 -9.19140625 1.53125 C-5.98215293 -0.71122291 -3.81848541 -0.54549792 0 0 Z " fill="#070504" transform="translate(274,130)"/>
<path d="M0 0 C-0.61746094 0.46148437 -1.23492187 0.92296875 -1.87109375 1.3984375 C-7.54603189 5.76909001 -12.40423413 10.38384236 -17.08984375 15.80078125 C-18.66648839 17.61601834 -20.27430453 19.32840157 -22 21 C-22.66 20.67 -23.32 20.34 -24 20 C-28.20094947 19.42714325 -29.6640295 19.76284435 -33.1875 22.25 C-35.40896458 24.4220987 -37.2841495 26.42622425 -39 29 C-39.66 28.67 -40.32 28.34 -41 28 C-32.71663186 13.32582134 -22.21399688 5.82843965 -6.828125 -0.25390625 C-3.99324586 -1.00178182 -2.69362061 -1.03600793 0 0 Z " fill="#D47E19" transform="translate(242,231)"/>
<path d="M0 0 C13.53 0 27.06 0 41 0 C40.67 0.99 40.34 1.98 40 3 C40 2.34 40 1.68 40 1 C31.09 1 22.18 1 13 1 C13.763125 3.0625 14.52625 5.125 15.3125 7.25 C15.95638672 8.99023438 15.95638672 8.99023438 16.61328125 10.765625 C18.48503529 15.13129358 20.04729444 17.36486296 24 20 C17.90089177 20.63532377 13.84675633 20.05876841 8.7890625 16.4921875 C4.65828024 13.04686256 1.52121245 9.25509755 0 4 C0 2.68 0 1.36 0 0 Z " fill="#D87065" transform="translate(293,192)"/>
<path d="M0 0 C0 8.91 0 17.82 0 27 C-6.61523963 24.79492012 -7.22864086 24.17214967 -11 19 C-12.53266582 15.93466836 -12.10276471 12.73245728 -12.0625 9.375 C-12.05798828 8.66859375 -12.05347656 7.9621875 -12.04882812 7.234375 C-12.03703875 5.48954725 -12.01910324 3.744763 -12 2 C-10.18769567 1.66560447 -8.3751509 1.33251176 -6.5625 1 C-5.04849609 0.7215625 -5.04849609 0.7215625 -3.50390625 0.4375 C-1 0 -1 0 0 0 Z " fill="#DBA901" transform="translate(155,403)"/>
<path d="M0 0 C1.94140625 0.40625 1.94140625 0.40625 4.44140625 2.40625 C6.48595456 6.49534662 6.37537648 8.84956263 5.94140625 13.40625 C4.77127399 16.8266366 4.06829902 17.32165482 0.94140625 19.40625 C-2.60655162 19.85918079 -4.33402132 19.95687273 -7.22265625 17.76171875 C-9.55261823 14.77242711 -9.56583571 13.09586746 -9.49609375 9.34375 C-9.49480469 8.30089844 -9.49351562 7.25804687 -9.4921875 6.18359375 C-9.05859375 3.40625 -9.05859375 3.40625 -7.77734375 1.56640625 C-5.30964009 -0.09929372 -2.91596663 -0.1288825 0 0 Z " fill="#080706" transform="translate(291.05859375,296.59375)"/>
<path d="M0 0 C1.94140625 0.40625 1.94140625 0.40625 4.44140625 2.40625 C6.48595456 6.49534662 6.37537648 8.84956263 5.94140625 13.40625 C4.77127399 16.8266366 4.06829902 17.32165482 0.94140625 19.40625 C-2.60655162 19.85918079 -4.33402132 19.95687273 -7.22265625 17.76171875 C-9.55261823 14.77242711 -9.56583571 13.09586746 -9.49609375 9.34375 C-9.49480469 8.30089844 -9.49351562 7.25804687 -9.4921875 6.18359375 C-9.05859375 3.40625 -9.05859375 3.40625 -7.77734375 1.56640625 C-5.30964009 -0.09929372 -2.91596663 -0.1288825 0 0 Z " fill="#080706" transform="translate(223.05859375,296.59375)"/>
<path d="M0 0 C-0.12047418 5.02705917 -0.24587237 8.09872551 -3.5625 12.0625 C-4.366875 12.701875 -5.17125 13.34125 -6 14 C-6.84069415 12.39967863 -7.67231505 10.79458829 -8.5 9.1875 C-9.19609375 7.84751953 -9.19609375 7.84751953 -9.90625 6.48046875 C-11 4 -11 4 -11 1 C-7.26562152 0.12132271 -3.83225427 -0.08912219 0 0 Z " fill="#F5CCAC" transform="translate(332,247)"/>
<path d="M0 0 C0.66 0 1.32 0 2 0 C3.57924842 3.15849685 3.14316514 6.5365128 3.125 10 C3.12886719 10.73734375 3.13273437 11.4746875 3.13671875 12.234375 C3.1266598 17.7466804 3.1266598 17.7466804 2 20 C1.34 20 0.68 20 0 20 C0 13.4 0 6.8 0 0 Z " fill="#F8CFAE" transform="translate(330,292)"/>
<path d="M0 0 C0.66 0 1.32 0 2 0 C2 3.63 2 7.26 2 11 C0.68 10.67 -0.64 10.34 -2 10 C-2.25 3.375 -2.25 3.375 0 0 Z " fill="#CDAB90" transform="translate(179,291)"/>
</svg>
